<?xml version="1.0" standalone="no"?>
<!DOCTYPE svg PUBLIC "-//W3C//DTD SVG 20010904//EN"
 "http://www.w3.org/TR/2001/REC-SVG-20010904/DTD/svg10.dtd">
<svg version="1.0" xmlns="http://www.w3.org/2000/svg"
 width="512.000000pt" height="512.000000pt" viewBox="0 0 512.000000 512.000000"
 preserveAspectRatio="xMidYMid meet">

<g transform="translate(0.000000,512.000000) scale(0.100000,-0.100000)"
fill="#000000" stroke="none">
<path d="M1018 5105 c-54 -30 -58 -53 -58 -305 0 -256 4 -276 61 -306 40 -20
88 -12 120 22 20 21 25 39 29 102 l5 77 105 0 105 0 5 -77 c4 -63 9 -81 29
-102 32 -34 80 -42 120 -22 57 30 61 50 61 306 0 256 -4 276 -61 306 -40 20
-88 12 -120 -22 -20 -21 -25 -39 -29 -102 l-5 -77 -105 0 -105 0 -5 77 c-4 66
-9 81 -31 103 -31 32 -85 40 -121 20z"/>
<path d="M1880 5109 c-39 -15 -60 -49 -60 -97 0 -35 6 -49 29 -73 27 -27 35
-29 105 -29 l76 0 0 -179 c0 -178 0 -180 26 -210 32 -38 80 -49 123 -27 54 29
61 56 61 246 l0 170 65 0 c75 0 116 17 133 55 20 44 14 82 -17 117 l-29 33
-244 2 c-145 1 -253 -2 -268 -8z"/>
<path d="M2734 5110 c-12 -4 -31 -21 -43 -36 -20 -26 -21 -37 -21 -275 l0
-247 26 -31 c32 -38 80 -49 122 -27 43 22 56 49 62 129 l5 68 68 -91 c117
-157 164 -157 280 -2 l72 96 5 -76 c4 -63 9 -81 29 -102 32 -34 80 -42 120
-22 57 30 61 50 61 306 0 256 -4 276 -61 306 -41 21 -88 12 -121 -24 -14 -15
-73 -91 -132 -169 -59 -79 -110 -143 -114 -143 -4 1 -59 71 -122 157 -137 185
-169 210 -236 183z"/>
<path d="M3800 5109 c-58 -23 -60 -31 -60 -307 0 -279 2 -290 62 -311 40 -14
356 -14 396 0 40 14 62 49 62 99 0 33 -6 48 -29 71 -29 29 -30 29 -154 29
l-125 0 -4 178 c-4 196 -9 215 -63 238 -39 16 -50 16 -85 3z"/>
<path d="M815 4041 c-25 -11 -51 -40 -59 -67 -3 -11 66 -789 154 -1729 88
-939 160 -1716 160 -1726 0 -10 12 -32 27 -48 26 -28 91 -48 783 -246 415
-120 771 -217 790 -216 53 1 1318 426 1346 452 13 12 25 33 29 48 13 61 325
3444 319 3466 -3 12 -17 34 -31 47 l-25 23 -1736 2 c-955 1 -1746 -2 -1757 -6z
m2873 -857 c25 -17 52 -64 52 -89 0 -10 -7 -32 -16 -50 -32 -68 22 -65 -1038
-65 -526 0 -956 -3 -956 -7 -1 -5 16 -146 37 -315 l37 -308 819 0 c583 0 825
-3 840 -11 41 -21 57 -51 57 -108 0 -76 -97 -1049 -110 -1092 -6 -20 -20 -43
-33 -51 -27 -18 -684 -238 -710 -238 -28 0 -790 220 -813 235 -29 19 -36 39
-99 294 -34 136 -54 235 -50 249 10 42 59 82 99 82 44 0 82 -17 99 -44 8 -12
35 -107 61 -212 l48 -192 325 -93 326 -93 269 90 c222 73 270 92 273 109 2 11
20 187 40 390 20 204 38 391 42 418 l6 47 -806 0 c-588 0 -813 3 -831 12 -51
23 -55 39 -114 512 -50 402 -55 455 -43 484 27 65 -37 61 1116 62 936 0 1053
-2 1073 -16z"/>
</g>
</svg>
